<svg width="28" height="34" viewBox="0 0 28 34" fill="none" xmlns="http://www.w3.org/2000/svg">
<path d="M18.9875 2.8C18.9875 2.06995 18.9875 1.70415 18.7578 1.4763C18.5312 1.25 18.1609 1.25 17.425 1.25H13.1516C8.9 1.25 5.19063 5.1405 5.43906 11.325H2.8125C2.07656 11.325 1.70781 11.325 1.47812 11.5513C1.25 11.7791 1.25 12.1465 1.25 12.875V15.2C1.25 15.93 1.25 16.2958 1.47812 16.5237C1.70781 16.75 2.07813 16.75 2.8125 16.75H5.9375V30.7C5.9375 31.43 5.9375 31.7958 6.16562 32.0237C6.39531 32.25 6.76563 32.25 7.5 32.25H10.625C11.3609 32.25 11.7297 32.25 11.9594 32.0237C12.1875 31.7958 12.1875 31.4285 12.1875 30.7V16.75H19.2656V30.7C19.2656 31.43 19.2656 31.7958 19.4953 32.0237C19.7234 32.25 20.0922 32.25 20.8297 32.25H24.6875C25.4234 32.25 25.7922 32.25 26.0219 32.0237C26.25 31.7958 26.25 31.4285 26.25 30.7V14.425C26.25 12.9633 26.25 12.2333 25.7922 11.7792C25.3344 11.325 24.5984 11.325 23.125 11.325H12.1875V9.3565C12.1875 8.225 12.9687 6.675 14.9953 6.675H17.425C18.1609 6.675 18.5297 6.675 18.7578 6.4487C18.9875 6.22085 18.9875 5.85505 18.9875 5.125V2.8Z" stroke="white" stroke-width="2.5" stroke-linecap="round" stroke-linejoin="round"/>
</svg>
